<svg width="15" height="16" fill="none" xmlns="http://www.w3.org/2000/svg"><path fill-rule="evenodd" clip-rule="evenodd" d="M9.14388 9.80009c.24.30401.528.64801.528.64801 1.76802-.056 2.44802-1.21601 2.44802-1.21601 0-2.576-1.152-4.664-1.152-4.664-1.15202-.864-2.24802-.84-2.24802-.84l-.112.128c1.36.416 1.99202 1.016 1.99202 1.016-.83202-.456-1.64802-.68-2.40802-.768-.576-.064-1.128-.048-1.616.016-.0419 0-.0777.0061-.1181.013l-.0179.003c-.28.024-.96.128-1.816.504-.296.136-.472.232-.472.232s.664-.632 2.104-1.048l-.08-.096s-1.096-.024-2.248.84c0 0-1.152 2.088-1.152 4.664 0 0 .672 1.16001 2.44 1.21601 0 0 .296-.36.536-.66401-1.016-.304-1.4-.944-1.4-.944s.08.056.224.136c.008.008.016.016.032.024.012.008.024.014.036.02.012.006.024.012.036.02.2.112.4.2.584.272.328.128.72.256 1.176.344.6.112 1.304.152 2.072.008.376-.064.76-.176 1.16-.344.28-.104.59202-.256.92002-.472 0 0-.4.656-1.44802.952Zm-4.008-2.2c0-.488.36-.888.816-.888.456 0 .824.4.816.888 0 .488-.36.888-.816.888-.448 0-.816-.4-.816-.888Zm2.92 0c0-.488.36-.888.816-.888.456 0 .816.4.816.888s-.36.888-.816.888c-.448 0-.816-.4-.816-.888ZM.3999 1.648c0-.912.736-1.648 1.64-1.648h10.72c.904 0 1.64.736 1.64 1.648V16l-1.72-1.52-.968-.896-1.024-.952.424 1.48h-9.072c-.904 0-1.64-.736-1.64-1.648V1.648Z" fill="#F9F9F9"/></svg>