<?xml version="1.0" encoding="utf-8"?>
<!-- Generator: Adobe Illustrator 26.5.0, SVG Export Plug-In . SVG Version: 6.00 Build 0)  -->
<svg version="1.1" id="Layer_1" xmlns="http://www.w3.org/2000/svg" xmlns:xlink="http://www.w3.org/1999/xlink" x="0px" y="0px"
	 viewBox="0 0 467 471" style="enable-background:new 0 0 467 471;" xml:space="preserve">
<style type="text/css">
	.st0{fill:#FFFFFF;}
</style>
<path class="st0" d="M277,385l0.7,82.4l50.5-27.7v-20v-7.1L277,385z"/>
<path class="st0" d="M259.3,375.3l-28.8-15.5l-86.5,47.6l115.5,61.7l3.3,1.9l-0.7-94.5L259.3,375.3z"/>
<path class="st0" d="M119.5,175.8V84.4L9.4,143.6l87.2,45.1L119.5,175.8z"/>
<path class="st0" d="M342.6,177.1l82,44.4v-121l-82,45.1v23.2V177.1z"/>
<path class="st0" d="M414.1,88.3l-51.2-27.7l-20.3,11.6v55.3v1.9l72.8-40.5L414.1,88.3z"/>
<path class="st0" d="M335.4,339.2L239,287.1v55.3v5.7l2.7,1.3l13.1,7.1l7.2,3.9l7.2,3.9l5.9,3.2l1.3,0.7l11.9,6.4l40,21.9l7.2,3.9
	h0.7l6.5-3.9L468,330.2v-61.1L335.4,339.2z"/>
<path class="st0" d="M294.1,249.1l-13.1,7.1l-1.3,0.7l-3.3,1.9v-1.3L275,258l-7.2,3.9l-8.5-4.5l-1.3-0.7l-3.3-1.3h-1.3l-13.7-7.1
	h-0.7v7.1v1.3v5.7v7.7l96.4,52.8l110.8-59.2l11.9-6.4l1.3-0.7l-13.1-7.1l-7.2-4.5l-7.9-3.9l-7.2-3.9L342.6,193v28.9l-6.5,3.9
	l-7.2,3.9l-7.9,3.9L294.1,249.1z"/>
<path class="st0" d="M161.5,153.4l65.6,35.3l0.7,1.3l0.7,0.7l9.9,5.2v8.4v20.5v1.3l0.7-0.7v7.1h0.7l7.9,3.9l11.9,5.7v-12.3v-8.4
	v-7.7V108.8L134.7,41.9v18V168l5.9-3.2L161.5,153.4z"/>
<path class="st0" d="M273.7,206v7.7v8.4v21.2l2-0.7l45.2-25.1l7.2-3.9v-20.5v-8.4v-7.7v-23.2v-18.7V71.5l-6.5-3.9L196.2,0
	l-53.7,29.6l131.2,70.8V206z"/>
<path class="st0" d="M80.9,197l-80-41.9v0.7v59.9l23.6,12.3l55.7-30.3L80.9,197z"/>
<path class="st0" d="M179.3,218.3l7.2-4.5l7.9-3.9l20.3-11.6l-53.1-28.9L140.6,181l-1.3,0.7l-5.9,3.9l-2,0.7l-5.2,3.2l-2,0.7
	l-13.7,7.7l-4.5,2.5l-3.3,1.3l-4,2.5l-3.3,1.9l-4,1.9l-51.7,28.4l-7.9,4.5H31v7.7v135.8l52.5,28.9l-0.7-137.1v-4.5l2.7-1.9l11.2-5.7
	l7.2-4.5L179.3,218.3z"/>
<path class="st0" d="M215.3,351.5l4.5-1.9l2.7-1.9h0.7l1.3-0.7v-4.5V340V279v-8v-8.4v-5.7v-1.3v-7.1v-7.7V240V233v-0.7v-7.7v-12.9
	v-2.5l-14.4,8.4l-7.9,3.9l-7.2,4.5L103.1,276l-5.9,3.9v4.5l0.7,131.2l2-1.3l19.7-10.3l7.2-4.5l7.9-3.9l72.1-39.2L215.3,351.5z"/>
</svg>
