<svg width="14" height="14" viewBox="0 0 14 14" fill="none" xmlns="http://www.w3.org/2000/svg">
<path d="M7.1999 9.79995C5.6999 9.79995 4.3999 8.59995 4.3999 6.99995C4.3999 5.49995 5.5999 4.19995 7.1999 4.19995C8.6999 4.19995 9.9999 5.39995 9.9999 6.99995C9.9999 8.49995 8.6999 9.79995 7.1999 9.79995Z" fill="#F9F9F9"/>
<path fill-rule="evenodd" clip-rule="evenodd" d="M10.5999 0.199951H3.7999C2.9999 0.299951 2.5999 0.399951 2.2999 0.499951C1.8999 0.599951 1.5999 0.799952 1.2999 1.09995C1.06251 1.33735 0.950353 1.57475 0.814793 1.86165C0.779063 1.93725 0.741603 2.01655 0.699903 2.09995C0.684433 2.14635 0.666573 2.19515 0.647423 2.24745C0.542813 2.53325 0.399902 2.92375 0.399902 3.59995V10.4C0.499902 11.2 0.599903 11.6 0.699903 11.9C0.799903 12.3 0.999903 12.6 1.2999 12.9C1.5373 13.1374 1.7747 13.2495 2.0616 13.3851C2.1373 13.4209 2.2164 13.4583 2.2999 13.5C2.3463 13.5155 2.3951 13.5333 2.4474 13.5525C2.7332 13.6571 3.1237 13.8 3.7999 13.8H10.5999C11.3999 13.7 11.7999 13.6 12.0999 13.5C12.4999 13.4 12.7999 13.2 13.0999 12.9C13.3373 12.6626 13.4494 12.4252 13.585 12.1383C13.6208 12.0626 13.6582 11.9835 13.6999 11.9C13.7154 11.8536 13.7332 11.8048 13.7524 11.7525C13.857 11.4667 13.9999 11.0762 13.9999 10.4V3.59995C13.8999 2.79995 13.7999 2.39995 13.6999 2.09995C13.5999 1.69995 13.3999 1.39995 13.0999 1.09995C12.8625 0.862562 12.6251 0.750401 12.3382 0.614831C12.2626 0.579131 12.1832 0.541621 12.0999 0.499951C12.0535 0.484481 12.0047 0.466612 11.9524 0.447472C11.6666 0.342852 11.2761 0.199951 10.5999 0.199951ZM7.1999 2.69995C4.7999 2.69995 2.8999 4.59995 2.8999 6.99995C2.8999 9.39995 4.7999 11.3 7.1999 11.3C9.5999 11.3 11.4999 9.39995 11.4999 6.99995C11.4999 4.59995 9.5999 2.69995 7.1999 2.69995ZM12.5999 2.59995C12.5999 3.15225 12.1522 3.59995 11.5999 3.59995C11.0476 3.59995 10.5999 3.15225 10.5999 2.59995C10.5999 2.04765 11.0476 1.59995 11.5999 1.59995C12.1522 1.59995 12.5999 2.04765 12.5999 2.59995Z" fill="#F9F9F9"/>
</svg>
