<svg version="1.1" id="Layer_1" xmlns="http://www.w3.org/2000/svg" x="0" y="0" viewBox="0 0 55.5 49.9" xml:space="preserve"><style>.st0{fill:#fff}</style><path class="st0" d="m3.3 28.5.2-.3L15.2 9.9c.2-.3.6-.2.7.1 2 4.4 3.6 9.8 2.9 13.2-.3 1.4-1.3 3.3-2.3 5-.1.3-.3.5-.4.7-.1.1-.2.2-.3.2h-12c-.5 0-.7-.3-.5-.6z"/><path class="st0" d="M55.5 31.9v2.9c0 .2-.1.3-.2.4-.9.4-4 1.8-5.3 3.6-3.3 4.6-5.8 11.1-11.4 11.1H15c-8.3 0-15-6.8-15-15.1v-.3c0-.2.2-.4.4-.4h13.1c.3 0 .4.2.4.5-.1.9.1 1.7.5 2.5.8 1.6 2.4 2.6 4.1 2.6H25v-5.1h-6.4c-.3 0-.5-.4-.3-.6.1-.1.1-.2.2-.3.6-.9 1.5-2.2 2.3-3.7.6-1 1.2-2.1 1.6-3.2.1-.2.2-.4.2-.6.1-.4.3-.7.3-1 .1-.3.2-.6.2-.8.2-.9.3-1.9.3-2.9 0-.4 0-.8-.1-1.2 0-.4-.1-.9-.1-1.3s-.1-.8-.2-1.2c-.1-.6-.2-1.2-.4-1.8l-.1-.2-.3-1.2c-.4-1.3-.8-2.5-1.2-3.6-.2-.5-.3-.9-.5-1.3-.3-.7-.6-1.3-.8-1.8-.1-.3-.2-.5-.4-.7-.1-.3-.3-.5-.4-.8l-.3-.6-.8-1.5c-.1-.2.1-.4.3-.4L23.3 5l.7.2.7.2.3.1V2.6C25 1.2 26.1 0 27.5 0c.7 0 1.3.3 1.8.8s.7 1.1.7 1.8V7l.5.1s.1 0 .1.1c.1.1.3.2.6.4.2.1.4.3.6.5.5.4 1 .9 1.7 1.4.2.1.3.3.5.4.8.7 1.7 1.6 2.6 2.6.2.3.5.6.7.8.2.3.5.6.7.9l.9 1.2c.1.2.3.4.4.6.4.5.7 1.1 1 1.6.1.3.3.5.4.8.3.7.6 1.5.8 2.2.1.2.1.3.1.5.1.2.1.5.1.7.1.8 0 1.5-.1 2.3-.1.3-.2.6-.3 1-.1.3-.2.6-.4 1-.3.6-.6 1.3-1 1.9-.1.2-.3.5-.4.7-.2.2-.3.5-.5.7-.2.3-.4.6-.6.8-.2.3-.4.5-.6.8-.3.4-.6.7-.9 1l-.6.6-.6.6c-.3.3-.6.6-.8.7l-.5.5c-.1.1-.2.1-.3.1h-3.9v5.1h5c1.1 0 2.2-.4 3-1.1.3-.3 1.6-1.4 3.1-3 .1-.1.1-.1.2-.1l13.7-4c0 .1.3.2.3.5z"/></svg>