<?xml version="1.0" encoding="utf-8"?>
<svg version="1.1" id="Layer_1" xmlns="http://www.w3.org/2000/svg" xmlns:xlink="http://www.w3.org/1999/xlink" x="0px" y="0px"
	 viewBox="0 0 162 162" style="enable-background:new 0 0 162 162;" xml:space="preserve">
	 <style>
      path {
        fill: #000;
      }
  
      @media (prefers-color-scheme: dark) {
        path {
          fill: #fff;
        }
      }
    </style>
<path d="M48.1,24.3c-3.1-4.3-9-5.6-13.1-2.3C18,35.5,7.2,56.3,7.2,79.7c0,40.8,33,73.8,73.8,73.8c40.8,0,73.8-33,73.8-73.8
	c0-23.6-11.1-44.6-28.3-58.1c-4.1-3.2-10-2-13,2.3c-3.5,4.9-1.8,11.6,2.7,15.6c11.2,9.8,18.3,24.2,18.3,40.2
	c0,29.5-23.9,53.4-53.4,53.4s-53.4-23.9-53.4-53.4c0-15.9,6.9-30.2,18-39.9C50,35.8,51.5,29.1,48.1,24.3z"/>
<path d="M85.2,31.1c-1.2,1.7-3.8,1.7-5,0L67.6,13.3c-1.4-2,0-4.8,2.5-4.8h25c2.5,0,3.9,2.8,2.5,4.8L85.2,31.1z"/>
</svg>
